<?xml version="1.0" encoding="UTF-8"?>
<svg version="1.1" xmlns="http://www.w3.org/2000/svg" width="500" height="500">
<path d="M0 0 C165 0 330 0 500 0 C500 165 500 330 500 500 C335 500 170 500 0 500 C0 335 0 170 0 0 Z " fill="#37B5FE" transform="translate(0,0)"/>
<path d="M0 0 C1.65 0 3.3 0 5 0 C5 2.31 5 4.62 5 7 C6.7015625 6.9690625 6.7015625 6.9690625 8.4375 6.9375 C12 7 12 7 13 8 C13.40992188 7.50628906 13.81984375 7.01257813 14.2421875 6.50390625 C14.78101563 5.86324219 15.31984375 5.22257813 15.875 4.5625 C16.40867188 3.92441406 16.94234375 3.28632813 17.4921875 2.62890625 C19.70220934 0.24139561 20.75467846 0.01635477 24.046875 -0.203125 C25.87992188 -0.22632813 25.87992188 -0.22632813 27.75 -0.25 C28.96171875 -0.27578125 30.1734375 -0.3015625 31.421875 -0.328125 C36.23962653 0.11367754 39.57670091 1.57670091 43 5 C42.625 7.625 42.625 7.625 42 10 C40.68 10 39.36 10 38 10 C37.46375 9.34 36.9275 8.68 36.375 8 C33.07656474 5.22237031 30.52842989 5.60107624 26.33984375 5.6640625 C23.73297925 5.86686395 23.73297925 5.86686395 21 8 C21.33 9.32 21.66 10.64 22 12 C23.25296875 12.17015625 24.5059375 12.3403125 25.796875 12.515625 C27.44804524 12.75954788 29.09908021 13.0043877 30.75 13.25 C31.575 13.35957031 32.4 13.46914062 33.25 13.58203125 C36.99638696 14.15607441 39.44555137 14.59374501 42.54296875 16.86328125 C44.36601571 19.53675763 44.6145784 21.8209391 44.46484375 25.03125 C43.68039603 28.3536168 41.60264542 29.95506431 39 32 C35.90083704 33.54958148 32.64928151 33.26681073 29.25 33.3125 C28.54617187 33.34150391 27.84234375 33.37050781 27.1171875 33.40039062 C21.8186289 33.46440667 19.14213845 32.30198773 15 29 C14.690625 29.66 14.38125 30.32 14.0625 31 C11.19331897 33.78223615 9.02083726 33.47972217 5.15625 33.53125 C3 33 3 33 1.26171875 31.515625 C-0.58843893 27.82676572 -0.56917852 24.32702022 -0.6875 20.25 C-0.72166016 19.45722656 -0.75582031 18.66445312 -0.79101562 17.84765625 C-0.87319104 15.89892496 -0.93828045 13.94948638 -1 12 C-2.32 11.67 -3.64 11.34 -5 11 C-5 9.68 -5 8.36 -5 7 C-3.35 7 -1.7 7 0 7 C0 4.69 0 2.38 0 0 Z " fill="#37AFF6" transform="translate(187,223)"/>
<path d="M0 0 C3.80974836 1.88430318 6.23739092 4.61900368 8.09375 8.34765625 C9.78196067 13.48305158 9.0640729 18.52247758 7.68359375 23.64453125 C6.79307372 27.14724336 6.72643124 28.10191155 7.74609375 31.33203125 C4.73577631 32.2662677 3.87959107 32.37653036 0.74609375 31.33203125 C-0.73890625 31.82703125 -0.73890625 31.82703125 -2.25390625 32.33203125 C-7.61697714 32.97765401 -12.94581829 33.58107275 -17.81640625 30.9453125 C-22.15350401 27.26994105 -24.89218402 23.99702822 -25.4609375 18.234375 C-25.73061554 12.25151765 -24.64416578 8.45444235 -20.953125 3.6328125 C-15.36366337 -2.31725956 -7.51777002 -2.22796997 0 0 Z " fill="#373B4A" transform="translate(84.25390625,223.66796875)"/>
<path d="M0 0 C2.475 0.495 2.475 0.495 5 1 C5 8.92 5 16.84 5 25 C3.35 25.33 1.7 25.66 0 26 C0 25.34 0 24.68 0 24 C-0.55816406 24.32226562 -1.11632812 24.64453125 -1.69140625 24.9765625 C-5.68318236 26.74618237 -9.72138897 26.56169772 -14 26 C-17.12414 24.24267125 -18.4882268 22.85295533 -20.3125 19.8125 C-21.66208457 14.29147222 -21.88713547 9.77427094 -19.3125 4.625 C-13.81087572 -1.62008702 -7.92310102 -2.45889342 0 0 Z " fill="#373B4A" transform="translate(284,230)"/>
<path d="M0 0 C3.24320856 1.38228842 5.50997895 2.50997895 8 5 C7.625 7.625 7.625 7.625 7 10 C5.68 10 4.36 10 3 10 C2.46375 9.34 1.9275 8.68 1.375 8 C-1.92343526 5.22237031 -4.47157011 5.60107624 -8.66015625 5.6640625 C-11.26702075 5.86686395 -11.26702075 5.86686395 -14 8 C-13.67 9.32 -13.34 10.64 -13 12 C-11.74703125 12.17015625 -10.4940625 12.3403125 -9.203125 12.515625 C-7.55195476 12.75954788 -5.90091979 13.0043877 -4.25 13.25 C-3.425 13.35957031 -2.6 13.46914062 -1.75 13.58203125 C1.99638696 14.15607441 4.44555137 14.59374501 7.54296875 16.86328125 C9.36601571 19.53675763 9.6145784 21.8209391 9.46484375 25.03125 C8.68039603 28.3536168 6.60264542 29.95506431 4 32 C0.90083704 33.54958148 -2.35071849 33.26681073 -5.75 33.3125 C-6.80574219 33.35600586 -6.80574219 33.35600586 -7.8828125 33.40039062 C-13.01316561 33.46237445 -15.98072323 32.45657802 -20 29 C-20.875 25.75 -20.875 25.75 -21 23 C-18.8125 22.1875 -18.8125 22.1875 -16 22 C-14.88625 23.2065625 -14.88625 23.2065625 -13.75 24.4375 C-10.33033827 27.62400297 -8.66636697 27.50316852 -4.18359375 27.37109375 C-1.81206504 26.96806114 -0.08549682 26.17752541 2 25 C2 23.68 2 22.36 2 21 C0.22882813 20.70996094 0.22882813 20.70996094 -1.578125 20.4140625 C-3.13547331 20.15137724 -4.69276191 19.88833782 -6.25 19.625 C-7.02730469 19.49867188 -7.80460938 19.37234375 -8.60546875 19.2421875 C-16.16665687 17.94967671 -16.16665687 17.94967671 -19 16 C-21.53418918 12.19871623 -21.68690436 10.50303968 -21 6 C-16.43438091 -1.60383106 -7.90995193 -1.17150838 0 0 Z " fill="#373B4B" transform="translate(222,223)"/>
<path d="M0 0 C3.42484369 2.28322912 4.97163392 4.19326784 6.8125 7.875 C7.0625 11.75 7.0625 11.75 6.8125 14.875 C4.515963 16.0232685 3.22936833 15.99061175 0.6796875 15.97265625 C-0.12597656 15.96943359 -0.93164062 15.96621094 -1.76171875 15.96289062 C-2.60347656 15.95451172 -3.44523437 15.94613281 -4.3125 15.9375 C-5.16199219 15.93298828 -6.01148438 15.92847656 -6.88671875 15.92382812 C-8.98700909 15.91202874 -11.0872633 15.89409306 -13.1875 15.875 C-11.94247823 17.93339344 -11.94247823 17.93339344 -10.1875 19.875 C-5.32389641 20.27365603 -0.98096848 19.8336937 3.8125 18.875 C3.5 21.25 3.5 21.25 2.8125 23.875 C-1.863632 26.99242133 -6.7165089 26.59049289 -12.1875 25.875 C-15.48793654 24.297077 -17.35994114 21.96587305 -19.5625 19.0625 C-21.0425891 13.88218813 -20.91552013 10.20551955 -18.375 5.5625 C-13.14227849 -0.86627214 -8.36020508 -2.95066062 0 0 Z " fill="#373D4D" transform="translate(253.1875,230.125)"/>
<path d="M0 0 C3.09752674 2.08902966 4.30015239 3.34413098 5.6875 6.8125 C5.96923965 9.57250509 5.87371076 12.01933862 5.6875 14.8125 C4.17328999 16.32671001 2.76277232 16.02559856 0.65234375 16.12890625 C-0.15654297 16.17080078 -0.96542969 16.21269531 -1.79882812 16.25585938 C-2.64896484 16.29517578 -3.49910156 16.33449219 -4.375 16.375 C-5.22900391 16.41818359 -6.08300781 16.46136719 -6.96289062 16.50585938 C-9.07922037 16.61226702 -11.19583813 16.71291731 -13.3125 16.8125 C-11.04386015 19.41698079 -10.65119358 19.78693822 -7 20.0625 C-3.70263624 19.83894991 -0.55393278 19.44497469 2.6875 18.8125 C3.0175 20.1325 3.3475 21.4525 3.6875 22.8125 C-1.82268454 26.63113892 -6.79373477 26.62508846 -13.3125 25.8125 C-16.57531695 24.05057885 -17.75118663 22.74802228 -19.625 19.625 C-20.97458457 14.10397222 -21.19963547 9.58677094 -18.625 4.4375 C-13.23236433 -1.68387022 -7.5616626 -2.71078471 0 0 Z " fill="#373C4C" transform="translate(148.3125,230.1875)"/>
<path d="M0 0 C1.2065625 0.0309375 1.2065625 0.0309375 2.4375 0.0625 C2.7675 2.7025 3.0975 5.3425 3.4375 8.0625 C4.4275 7.4025 5.4175 6.7425 6.4375 6.0625 C11.21307141 5.59277166 13.49651543 5.59200772 17.8125 7.75 C21.01413794 10.57049056 22.25836453 12.75097433 22.59228516 17.05981445 C22.63401447 19.3350674 22.61208197 21.59995016 22.5625 23.875 C22.55347656 24.66326172 22.54445313 25.45152344 22.53515625 26.26367188 C22.51172504 28.19674666 22.47585838 30.1296638 22.4375 32.0625 C20.78135343 32.44468767 19.11292976 32.77645102 17.4375 33.0625 C15.17408529 30.79908529 16.08237202 24.5476747 16.0078125 21.3203125 C15.976875 20.5675 15.9459375 19.8146875 15.9140625 19.0390625 C15.89424316 18.34893066 15.87442383 17.65879883 15.85400391 16.94775391 C15.31500545 14.50804342 14.37979916 13.59330996 12.4375 12.0625 C9.98040625 11.47899495 9.98040625 11.47899495 7.4375 12.0625 C5.1625711 13.53194772 5.1625711 13.53194772 3.4375 16.0625 C2.98861429 18.92846259 2.74324802 21.4440111 2.6875 24.3125 C2.65785156 25.05757812 2.62820313 25.80265625 2.59765625 26.5703125 C2.5272657 28.40046672 2.48008168 30.23148769 2.4375 32.0625 C0.78135343 32.44468767 -0.88707024 32.77645102 -2.5625 33.0625 C-4.47099948 31.15400052 -3.69309633 27.74771226 -3.6953125 25.21875 C-3.69626923 24.53445923 -3.69722595 23.85016846 -3.69821167 23.1451416 C-3.6988933 21.69588123 -3.69704023 20.24661782 -3.69287109 18.79736328 C-3.68752252 16.57187072 -3.6928166 14.34657999 -3.69921875 12.12109375 C-3.69855797 10.71614539 -3.6972768 9.31119715 -3.6953125 7.90625 C-3.69418457 6.61912109 -3.69305664 5.33199219 -3.69189453 4.00585938 C-3.51956468 0.08584304 -3.51956468 0.08584304 0 0 Z " fill="#373A49" transform="translate(339.5625,222.9375)"/>
<path d="M0 0 C5.09090909 2.09090909 5.09090909 2.09090909 7 4 C7.04063832 5.66617115 7.042721 7.33388095 7 9 C3.62537285 8.45276317 1.91765 7.9451 -1 6 C-5.14776273 5.71337567 -5.14776273 5.71337567 -9 7 C-9.33 7.99 -9.66 8.98 -10 10 C-9.27554688 10.03738281 -8.55109375 10.07476562 -7.8046875 10.11328125 C3.90987124 10.90987124 3.90987124 10.90987124 8 15 C8.47124825 22.30434783 8.47124825 22.30434783 6.6875 24.9375 C1.51433835 28.19467586 -5.1427153 27.65894453 -11 27 C-13.80561334 25.63007161 -14.36080728 24.77401845 -16 22 C-15.8125 19.6875 -15.8125 19.6875 -15 18 C-13.35 18.33 -11.7 18.66 -10 19 C-10 19.66 -10 20.32 -10 21 C-6.37 21 -2.74 21 1 21 C1.33 19.68 1.66 18.36 2 17 C1.18015625 16.95101562 0.3603125 16.90203125 -0.484375 16.8515625 C-2.10085937 16.73941406 -2.10085937 16.73941406 -3.75 16.625 C-4.81734375 16.55539063 -5.8846875 16.48578125 -6.984375 16.4140625 C-9.85576378 16.01980446 -11.60291057 15.58726192 -14 14 C-16 11 -16 11 -16 7.5625 C-15 4 -15 4 -12.5 1.5625 C-8.12059101 -0.3925933 -4.72099357 -0.72500973 0 0 Z " fill="#373D4D" transform="translate(173,229)"/>
<path d="M0 0 C7.88238399 0.01885738 15.6663793 0.41340537 23.515625 1.1328125 C23.7758396 20.93803476 23.7758396 20.93803476 22.515625 26.1328125 C19.515625 28.1328125 19.515625 28.1328125 16.890625 27.8203125 C14.515625 27.1328125 14.515625 27.1328125 13.515625 26.1328125 C13.3828125 24.34765625 13.3828125 24.34765625 13.390625 22.0703125 C13.38675781 20.97009766 13.38675781 20.97009766 13.3828125 19.84765625 C13.55924119 16.24124633 14.03841062 12.71192036 14.515625 9.1328125 C13.31164062 9.16761719 12.10765625 9.20242187 10.8671875 9.23828125 C9.29168058 9.2664153 7.71615862 9.29371587 6.140625 9.3203125 C5.3465625 9.34544922 4.5525 9.37058594 3.734375 9.39648438 C1.65976352 9.42285655 -0.41538365 9.28767712 -2.484375 9.1328125 C-4.484375 6.1328125 -4.484375 6.1328125 -4.171875 3.5078125 C-3.20606954 0.17139365 -3.20606954 0.17139365 0 0 Z " fill="#010508" transform="translate(375.484375,206.8671875)"/>
<path d="M0 0 C1.12148438 0.04833984 2.24296875 0.09667969 3.3984375 0.14648438 C5.161875 0.2305957 5.161875 0.2305957 6.9609375 0.31640625 C8.14429688 0.36861328 9.32765625 0.42082031 10.546875 0.47460938 C13.47681311 0.60456631 16.40643423 0.73954153 19.3359375 0.87890625 C19.22645644 5.00447315 19.09573525 9.12909503 18.9609375 13.25390625 C18.91453125 15.01734375 18.91453125 15.01734375 18.8671875 16.81640625 C18.82851563 17.93789062 18.78984375 19.059375 18.75 20.21484375 C18.7185791 21.2517334 18.6871582 22.28862305 18.65478516 23.35693359 C18.3359375 25.87890625 18.3359375 25.87890625 16.3359375 27.87890625 C13.2734375 28.06640625 13.2734375 28.06640625 10.3359375 27.87890625 C9.3359375 26.87890625 9.3359375 26.87890625 9.203125 25.12890625 C9.22218766 19.6388608 9.64423954 14.32602767 10.3359375 8.87890625 C9.13195312 8.90210938 7.92796875 8.9253125 6.6875 8.94921875 C5.11198535 8.96797488 3.53646402 8.98617524 1.9609375 9.00390625 C1.166875 9.02066406 0.3728125 9.03742188 -0.4453125 9.0546875 C-2.51898265 9.07226098 -4.59289491 8.98225793 -6.6640625 8.87890625 C-7.3240625 8.21890625 -7.9840625 7.55890625 -8.6640625 6.87890625 C-8.4140625 3.81640625 -8.4140625 3.81640625 -7.6640625 0.87890625 C-4.96635992 -0.46994504 -3.01132875 -0.13687858 0 0 Z " fill="#010508" transform="translate(365.6640625,220.12109375)"/>
<path d="M0 0 C3.0220794 1.74450506 5.41651082 3.83302164 7 7 C7.16796875 8.875 7.16796875 8.875 7.1875 11 C7.20167969 11.70125 7.21585938 12.4025 7.23046875 13.125 C7 15 7 15 5 17 C2.375 16.625 2.375 16.625 0 16 C0.50603992 18.16874252 0.99983813 19.99967627 2 22 C-1.20613847 23.60306924 -4.52139997 23.48740461 -8 23 C-11.43952148 20.90637823 -13.78028175 18.88092169 -15 15 C-15.480151 10.67864101 -15.29173086 8.5331633 -13.1875 4.6875 C-9.42503733 0.06504586 -5.79886742 -1.10506719 0 0 Z " fill="#37B2FA" transform="translate(80,228)"/>
<path d="M0 0 C1.65 0 3.3 0 5 0 C5.04898438 1.19238281 5.09796875 2.38476562 5.1484375 3.61328125 C5.22347604 5.17971068 5.2990234 6.74611579 5.375 8.3125 C5.4059375 9.09818359 5.436875 9.88386719 5.46875 10.69335938 C5.50742188 11.45068359 5.54609375 12.20800781 5.5859375 12.98828125 C5.6173584 13.68477783 5.6487793 14.38127441 5.68115234 15.09887695 C5.92118253 17.32532739 5.92118253 17.32532739 8 20 C11.41499591 20.66707548 11.41499591 20.66707548 15 20 C18.52094997 16.69989814 19.47276672 14.03093856 19.70703125 9.22851562 C19.72830078 8.21821289 19.72830078 8.21821289 19.75 7.1875 C19.79447266 6.14819336 19.79447266 6.14819336 19.83984375 5.08789062 C19.90999628 3.39253787 19.95732662 1.69626688 20 0 C21.65 0 23.3 0 25 0 C25 8.25 25 16.5 25 25 C23.68 25.33 22.36 25.66 21 26 C20.34 25.34 19.68 24.68 19 24 C18.01 24.66 17.02 25.32 16 26 C11.11483856 26.71207438 7.1899265 26.72852643 2.9375 24.125 C0.14843735 21.06602806 -0.12321338 19.46771384 -0.09765625 15.4296875 C-0.09443359 14.53378906 -0.09121094 13.63789063 -0.08789062 12.71484375 C-0.07951172 11.77769531 -0.07113281 10.84054688 -0.0625 9.875 C-0.05798828 8.93011719 -0.05347656 7.98523438 -0.04882812 7.01171875 C-0.03702357 4.67441613 -0.02055759 2.33723939 0 0 Z " fill="#373846" transform="translate(98,230)"/>
<path d="M0 0 C2.44892991 1.4314519 3.9942314 2.94280144 6 5 C5.34 6.32 4.68 7.64 4 9 C2 8 0 7 -2 6 C-6.0962442 5.55556813 -6.0962442 5.55556813 -9.671875 7.234375 C-11.35280548 9.46902375 -11.37253319 10.72923737 -11.3125 13.5 C-11.30863281 14.2734375 -11.30476563 15.046875 -11.30078125 15.84375 C-11.11825461 18.29324946 -11.11825461 18.29324946 -9 21 C-3.11510543 21.5540567 -3.11510543 21.5540567 2 19 C4.1875 19.375 4.1875 19.375 6 20 C5.64170025 22.59767322 5.24065386 23.76997968 3.3203125 25.60546875 C-1.06693168 28.24224682 -6.06534198 27.7181278 -11 27 C-13.7921614 25.63273147 -14.91812769 24.41947322 -17 22 C-18.65374596 17.03876211 -19.39878879 10.84233881 -17.0234375 6.015625 C-12.43915247 0.3344865 -7.03473152 -1.25142892 0 0 Z " fill="#373C4C" transform="translate(327,229)"/>
<path d="M0 0 C1.65 0 3.3 0 5 0 C5 2.31 5 4.62 5 7 C7.31 7 9.62 7 12 7 C12 8.32 12 9.64 12 11 C9.69 11 7.38 11 5 11 C5.33 16.28 5.66 21.56 6 27 C8.31 27.33 10.62 27.66 13 28 C13 29.32 13 30.64 13 32 C11.42102167 33.57897833 9.80637428 33.24543509 7.625 33.3125 C6.83351562 33.34988281 6.04203125 33.38726562 5.2265625 33.42578125 C3 33 3 33 1.25390625 31.52734375 C-0.58043874 27.83008142 -0.5691349 24.32852305 -0.6875 20.25 C-0.72166016 19.45722656 -0.75582031 18.66445312 -0.79101562 17.84765625 C-0.87319104 15.89892496 -0.93828045 13.94948638 -1 12 C-2.32 11.67 -3.64 11.34 -5 11 C-5 9.68 -5 8.36 -5 7 C-3.35 7 -1.7 7 0 7 C0 4.69 0 2.38 0 0 Z " fill="#373846" transform="translate(187,223)"/>
<path d="M0 0 C2 0.33333333 4 0.66666667 6 1 C6.33 0.67 6.66 0.34 7 0 C8.99958364 -0.04080783 11.00045254 -0.04254356 13 0 C13.33 1.32 13.66 2.64 14 4 C12.2984375 4.680625 12.2984375 4.680625 10.5625 5.375 C6.95278308 6.57095806 6.95278308 6.57095806 6 9 C5.7677354 11.71262116 5.58063765 14.40773126 5.4375 17.125 C5.39431641 17.87910156 5.35113281 18.63320312 5.30664062 19.41015625 C5.2005168 21.27321888 5.09974999 23.13658524 5 25 C3.34385343 25.38218767 1.67542976 25.71395102 0 26 C-1.71567792 24.28432208 -1.13015825 22.02627265 -1.1328125 19.6875 C-1.13410156 18.61242187 -1.13539063 17.53734375 -1.13671875 16.4296875 C-1.13091797 14.73199219 -1.13091797 14.73199219 -1.125 13 C-1.12886719 11.86820313 -1.13273437 10.73640625 -1.13671875 9.5703125 C-1.13542969 8.49523437 -1.13414062 7.42015625 -1.1328125 6.3125 C-1.13168457 5.31863281 -1.13055664 4.32476562 -1.12939453 3.30078125 C-1 1 -1 1 0 0 Z " fill="#373C4C" transform="translate(295,230)"/>
<path d="M0 0 C1.9375 0.3359375 1.9375 0.3359375 4.9375 2.3359375 C5.37109375 4.83203125 5.37109375 4.83203125 5.375 7.7734375 C5.39433594 8.74152344 5.41367187 9.70960938 5.43359375 10.70703125 C4.9375 13.3359375 4.9375 13.3359375 3.09765625 15.15625 C0.13753108 16.77281022 -1.73833137 16.82071209 -5.0625 16.3359375 C-7.4375 14.8359375 -7.4375 14.8359375 -9.0625 12.3359375 C-9.7533363 8.54798117 -9.49054058 5.40603894 -8.0625 1.8359375 C-5.35588257 -0.19402558 -3.3096584 -0.06268292 0 0 Z " fill="#37B2FA" transform="translate(278.0625,234.6640625)"/>
<path d="M0 0 C3.02545731 2.08652228 3.06062332 3.24249326 4 7 C-0.95 7 -5.9 7 -11 7 C-10 3 -10 3 -8.3125 1.25 C-5.30638669 -0.37492611 -3.37151684 -0.4304064 0 0 Z " fill="#37ADF2" transform="translate(145,234)"/>
<path d="M0 0 C3.125 0.375 3.125 0.375 5.5 2.1875 C7.125 4.375 7.125 4.375 7.125 7.375 C2.175 7.375 -2.775 7.375 -7.875 7.375 C-3.74292453 0.48820755 -3.74292453 0.48820755 0 0 Z " fill="#37AFF4" transform="translate(246.875,233.625)"/>
</svg>
